%TF.GenerationSoftware,KiCad,Pcbnew,(5.1.9-0-10_14)*%
%TF.CreationDate,2021-08-25T11:23:16+08:00*%
%TF.ProjectId,v1,76312e6b-6963-4616-945f-706362585858,rev?*%
%TF.SameCoordinates,Original*%
%TF.FileFunction,Copper,L1,Top*%
%TF.FilePolarity,Positive*%
%FSLAX46Y46*%
G04 Gerber Fmt 4.6, Leading zero omitted, Abs format (unit mm)*
G04 Created by KiCad (PCBNEW (5.1.9-0-10_14)) date 2021-08-25 11:23:16*
%MOMM*%
%LPD*%
G01*
G04 APERTURE LIST*
%TA.AperFunction,ComponentPad*%
%ADD10O,1.700000X1.700000*%
%TD*%
%TA.AperFunction,ComponentPad*%
%ADD11R,1.700000X1.700000*%
%TD*%
%TA.AperFunction,ComponentPad*%
%ADD12C,1.524000*%
%TD*%
%TA.AperFunction,ComponentPad*%
%ADD13O,1.600000X1.600000*%
%TD*%
%TA.AperFunction,ComponentPad*%
%ADD14R,1.600000X1.600000*%
%TD*%
%TA.AperFunction,SMDPad,CuDef*%
%ADD15R,1.700000X0.650000*%
%TD*%
%TA.AperFunction,ComponentPad*%
%ADD16O,3.500000X2.200000*%
%TD*%
%TA.AperFunction,ComponentPad*%
%ADD17O,2.500000X1.500000*%
%TD*%
%TA.AperFunction,ComponentPad*%
%ADD18R,2.500000X1.500000*%
%TD*%
%TA.AperFunction,ComponentPad*%
%ADD19C,1.600000*%
%TD*%
%TA.AperFunction,SMDPad,CuDef*%
%ADD20R,2.000000X1.500000*%
%TD*%
%TA.AperFunction,SMDPad,CuDef*%
%ADD21R,2.000000X3.800000*%
%TD*%
%TA.AperFunction,Conductor*%
%ADD22C,0.500000*%
%TD*%
G04 APERTURE END LIST*
D10*
%TO.P,J3,4*%
%TO.N,GND*%
X169630000Y-80000000D03*
%TO.P,J3,3*%
%TO.N,+5V*%
X172170000Y-80000000D03*
%TO.P,J3,2*%
%TO.N,/SCL*%
X174710000Y-80000000D03*
D11*
%TO.P,J3,1*%
%TO.N,/SDA*%
X177250000Y-80000000D03*
%TD*%
D12*
%TO.P,M1,3*%
%TO.N,GND*%
X105960000Y-89920000D03*
%TO.P,M1,2*%
%TO.N,/MISO*%
X105960000Y-92460000D03*
%TO.P,M1,1*%
%TO.N,+5V*%
X105960000Y-95000000D03*
%TD*%
D13*
%TO.P,U4,8*%
%TO.N,+5V*%
X174370000Y-98500000D03*
%TO.P,U4,4*%
%TO.N,GND*%
X166750000Y-106120000D03*
%TO.P,U4,7*%
%TO.N,/SCL*%
X174370000Y-101040000D03*
%TO.P,U4,3*%
%TO.N,/PB4*%
X166750000Y-103580000D03*
%TO.P,U4,6*%
%TO.N,/MISO*%
X174370000Y-103580000D03*
%TO.P,U4,2*%
%TO.N,/PB3*%
X166750000Y-101040000D03*
%TO.P,U4,5*%
%TO.N,/SDA*%
X174370000Y-106120000D03*
D14*
%TO.P,U4,1*%
%TO.N,/RST*%
X166750000Y-98500000D03*
%TD*%
D15*
%TO.P,U3,8*%
%TO.N,+5V*%
X174400000Y-88845000D03*
%TO.P,U3,7*%
%TO.N,/SCL*%
X174400000Y-90115000D03*
%TO.P,U3,6*%
%TO.N,/MISO*%
X174400000Y-91385000D03*
%TO.P,U3,5*%
%TO.N,/SDA*%
X174400000Y-92655000D03*
%TO.P,U3,4*%
%TO.N,GND*%
X167100000Y-92655000D03*
%TO.P,U3,3*%
%TO.N,/PB4*%
X167100000Y-91385000D03*
%TO.P,U3,2*%
%TO.N,/PB3*%
X167100000Y-90115000D03*
%TO.P,U3,1*%
%TO.N,/RST*%
X167100000Y-88845000D03*
%TD*%
D16*
%TO.P,SW1,*%
%TO.N,*%
X194000000Y-75400000D03*
X194000000Y-83600000D03*
D17*
%TO.P,SW1,3*%
%TO.N,N/C*%
X194000000Y-77500000D03*
%TO.P,SW1,2*%
%TO.N,Net-(J1-Pad1)*%
X194000000Y-79500000D03*
D18*
%TO.P,SW1,1*%
%TO.N,Net-(SW1-Pad1)*%
X194000000Y-81500000D03*
%TD*%
D13*
%TO.P,R3,2*%
%TO.N,/RST*%
X177750000Y-98590000D03*
D19*
%TO.P,R3,1*%
%TO.N,+5V*%
X177750000Y-108750000D03*
%TD*%
D13*
%TO.P,R2,2*%
%TO.N,/SDA*%
X184750000Y-98590000D03*
D19*
%TO.P,R2,1*%
%TO.N,+5V*%
X184750000Y-108750000D03*
%TD*%
D13*
%TO.P,R1,2*%
%TO.N,/SCL*%
X181250000Y-98590000D03*
D19*
%TO.P,R1,1*%
%TO.N,+5V*%
X181250000Y-108750000D03*
%TD*%
D10*
%TO.P,J4,4*%
%TO.N,+5V*%
X169630000Y-84000000D03*
%TO.P,J4,3*%
%TO.N,GND*%
X172170000Y-84000000D03*
%TO.P,J4,2*%
%TO.N,/SCL*%
X174710000Y-84000000D03*
D11*
%TO.P,J4,1*%
%TO.N,/SDA*%
X177250000Y-84000000D03*
%TD*%
D12*
%TO.P,M2,6*%
%TO.N,+5V*%
X147500000Y-75250000D03*
%TO.P,M2,5*%
%TO.N,/PB4*%
X149500000Y-75250000D03*
%TO.P,M2,4*%
%TO.N,GND*%
X151500000Y-75250000D03*
%TO.P,M2,3*%
%TO.N,/PB3*%
X153500000Y-75250000D03*
%TO.P,M2,2*%
%TO.N,GND*%
X155500000Y-75250000D03*
%TO.P,M2,1*%
%TO.N,Net-(C2-Pad1)*%
X157500000Y-75250000D03*
%TD*%
D20*
%TO.P,U1,1*%
%TO.N,GND*%
X186150000Y-93800000D03*
%TO.P,U1,3*%
%TO.N,Net-(SW1-Pad1)*%
X186150000Y-89200000D03*
%TO.P,U1,2*%
%TO.N,+5V*%
X186150000Y-91500000D03*
D21*
X179850000Y-91500000D03*
%TD*%
D13*
%TO.P,R4,2*%
%TO.N,+5V*%
X140910000Y-75250000D03*
D19*
%TO.P,R4,1*%
%TO.N,Net-(C2-Pad1)*%
X130750000Y-75250000D03*
%TD*%
D10*
%TO.P,J2,6*%
%TO.N,/RST*%
X192500000Y-103700000D03*
%TO.P,J2,5*%
%TO.N,/SDA*%
X192500000Y-101160000D03*
%TO.P,J2,4*%
%TO.N,/MISO*%
X192500000Y-98620000D03*
%TO.P,J2,3*%
%TO.N,/SCL*%
X192500000Y-96080000D03*
%TO.P,J2,2*%
%TO.N,GND*%
X192500000Y-93540000D03*
D11*
%TO.P,J2,1*%
%TO.N,+5V*%
X192500000Y-91000000D03*
%TD*%
D10*
%TO.P,J1,2*%
%TO.N,GND*%
X188750000Y-84540000D03*
D11*
%TO.P,J1,1*%
%TO.N,Net-(J1-Pad1)*%
X188750000Y-82000000D03*
%TD*%
D19*
%TO.P,C2,2*%
%TO.N,GND*%
X108250000Y-79500000D03*
D14*
%TO.P,C2,1*%
%TO.N,Net-(C2-Pad1)*%
X108250000Y-77000000D03*
%TD*%
D19*
%TO.P,C1,2*%
%TO.N,GND*%
X191250000Y-107250000D03*
D14*
%TO.P,C1,1*%
%TO.N,+5V*%
X191250000Y-109750000D03*
%TD*%
D22*
%TO.N,GND*%
X192500000Y-93540000D02*
X188960000Y-93540000D01*
X188700000Y-93800000D02*
X186150000Y-93800000D01*
X188960000Y-93540000D02*
X188700000Y-93800000D01*
X167100000Y-92655000D02*
X164095000Y-92655000D01*
X164095000Y-92655000D02*
X162750000Y-94000000D01*
X162750000Y-94000000D02*
X162750000Y-104500000D01*
X164370000Y-106120000D02*
X162750000Y-104500000D01*
X166750000Y-106120000D02*
X164370000Y-106120000D01*
X191250000Y-107250000D02*
X193750000Y-107250000D01*
X193750000Y-107250000D02*
X195000000Y-106000000D01*
X195000000Y-106000000D02*
X195000000Y-94750000D01*
X193790000Y-93540000D02*
X192500000Y-93540000D01*
X195000000Y-94750000D02*
X193790000Y-93540000D01*
%TO.N,+5V*%
X179850000Y-91500000D02*
X186150000Y-91500000D01*
X186150000Y-91500000D02*
X189000000Y-91500000D01*
X189500000Y-91000000D02*
X192500000Y-91000000D01*
X189000000Y-91500000D02*
X189500000Y-91000000D01*
X174400000Y-88845000D02*
X175845000Y-88845000D01*
X178500000Y-91500000D02*
X179850000Y-91500000D01*
X175845000Y-88845000D02*
X178500000Y-91500000D01*
X177750000Y-108750000D02*
X184750000Y-108750000D01*
X179750000Y-91400000D02*
X179850000Y-91500000D01*
X105960000Y-95000000D02*
X110460000Y-90500000D01*
X110460000Y-90500000D02*
X110460000Y-90040000D01*
X110460000Y-90040000D02*
X122250000Y-78250000D01*
X137910000Y-78250000D02*
X140910000Y-75250000D01*
X122250000Y-78250000D02*
X137910000Y-78250000D01*
X169630000Y-82540000D02*
X172170000Y-80000000D01*
X169630000Y-84000000D02*
X169630000Y-82540000D01*
X179850000Y-88900000D02*
X179850000Y-91500000D01*
X172170000Y-80000000D02*
X172170000Y-77670000D01*
X172170000Y-77670000D02*
X172590000Y-77250000D01*
X172590000Y-77250000D02*
X180750000Y-77250000D01*
X180750000Y-77250000D02*
X181500000Y-78000000D01*
X181500000Y-87250000D02*
X179850000Y-88900000D01*
X181500000Y-78000000D02*
X181500000Y-87250000D01*
%TO.N,Net-(J1-Pad1)*%
X191250000Y-79500000D02*
X188750000Y-82000000D01*
X194000000Y-79500000D02*
X191250000Y-79500000D01*
%TO.N,/RST*%
X166750000Y-98500000D02*
X167750000Y-98500000D01*
X167750000Y-98500000D02*
X170500000Y-95750000D01*
X170500000Y-95750000D02*
X170500000Y-89750000D01*
X169595000Y-88845000D02*
X167100000Y-88845000D01*
X170500000Y-89750000D02*
X169595000Y-88845000D01*
%TO.N,/SDA*%
X174370000Y-106120000D02*
X180380000Y-106120000D01*
X184750000Y-101750000D02*
X184750000Y-98590000D01*
X180380000Y-106120000D02*
X184750000Y-101750000D01*
X187320000Y-101160000D02*
X184750000Y-98590000D01*
X192500000Y-101160000D02*
X187320000Y-101160000D01*
X174400000Y-92655000D02*
X172845000Y-92655000D01*
X172845000Y-92655000D02*
X171250000Y-94250000D01*
X171250000Y-94250000D02*
X171250000Y-103250000D01*
X174120000Y-106120000D02*
X174370000Y-106120000D01*
X171250000Y-103250000D02*
X174120000Y-106120000D01*
X177250000Y-84000000D02*
X177250000Y-80000000D01*
X171750000Y-91560000D02*
X172845000Y-92655000D01*
X172250000Y-85750000D02*
X171750000Y-86250000D01*
X171750000Y-86250000D02*
X171750000Y-91560000D01*
X177000000Y-85750000D02*
X172250000Y-85750000D01*
X177250000Y-85500000D02*
X177000000Y-85750000D01*
X177250000Y-84000000D02*
X177250000Y-85500000D01*
%TO.N,/MISO*%
X176250000Y-91750000D02*
X175885000Y-91385000D01*
X176250000Y-94250000D02*
X176250000Y-91750000D01*
X175885000Y-91385000D02*
X174400000Y-91385000D01*
X175250000Y-95250000D02*
X176250000Y-94250000D01*
X174250000Y-95250000D02*
X175250000Y-95250000D01*
X172250000Y-97250000D02*
X174250000Y-95250000D01*
X172250000Y-102500000D02*
X172250000Y-97250000D01*
X173330000Y-103580000D02*
X172250000Y-102500000D01*
X174370000Y-103580000D02*
X173330000Y-103580000D01*
X187120000Y-98620000D02*
X189870000Y-98620000D01*
X186250000Y-97750000D02*
X187120000Y-98620000D01*
X186250000Y-96750000D02*
X186250000Y-97750000D01*
X186000000Y-96500000D02*
X186250000Y-96750000D01*
X183000000Y-97000000D02*
X183500000Y-96500000D01*
X189870000Y-98620000D02*
X192500000Y-98620000D01*
X183000000Y-100750000D02*
X183000000Y-97000000D01*
X180170000Y-103580000D02*
X183000000Y-100750000D01*
X183500000Y-96500000D02*
X186000000Y-96500000D01*
X174370000Y-103580000D02*
X180170000Y-103580000D01*
%TO.N,/SCL*%
X178800000Y-101040000D02*
X181250000Y-98590000D01*
X174370000Y-101040000D02*
X178800000Y-101040000D01*
X175750000Y-90115000D02*
X177000000Y-91365000D01*
X174400000Y-90115000D02*
X175750000Y-90115000D01*
X177000000Y-94340000D02*
X181250000Y-98590000D01*
X177000000Y-91365000D02*
X177000000Y-94340000D01*
X174710000Y-80000000D02*
X174710000Y-84000000D01*
X173050000Y-90115000D02*
X174400000Y-90115000D01*
X172750000Y-89815000D02*
X173050000Y-90115000D01*
X172750000Y-87750000D02*
X172750000Y-89815000D01*
X179500000Y-87250000D02*
X173250000Y-87250000D01*
X180250000Y-86500000D02*
X179500000Y-87250000D01*
X180000000Y-78250000D02*
X180250000Y-78500000D01*
X175250000Y-78250000D02*
X180000000Y-78250000D01*
X174710000Y-78790000D02*
X175250000Y-78250000D01*
X173250000Y-87250000D02*
X172750000Y-87750000D01*
X180250000Y-78500000D02*
X180250000Y-86500000D01*
X174710000Y-80000000D02*
X174710000Y-78790000D01*
X181750000Y-95500000D02*
X181250000Y-96000000D01*
X181250000Y-96000000D02*
X181250000Y-98590000D01*
X187000000Y-95500000D02*
X181750000Y-95500000D01*
X187580000Y-96080000D02*
X187000000Y-95500000D01*
X192500000Y-96080000D02*
X187580000Y-96080000D01*
%TO.N,/PB4*%
X167100000Y-91385000D02*
X168450000Y-91385000D01*
X164000000Y-100830000D02*
X166750000Y-103580000D01*
X168450000Y-91385000D02*
X168450000Y-93310035D01*
X168450000Y-93310035D02*
X164000000Y-97760035D01*
X164000000Y-97760035D02*
X164000000Y-100830000D01*
X157885000Y-91385000D02*
X167100000Y-91385000D01*
X149500000Y-83000000D02*
X157885000Y-91385000D01*
X149500000Y-75250000D02*
X149500000Y-83000000D01*
%TO.N,/PB3*%
X164750000Y-100000000D02*
X165790000Y-101040000D01*
X164750000Y-98089998D02*
X164750000Y-100000000D01*
X169200011Y-93639987D02*
X164750000Y-98089998D01*
X169200011Y-90865011D02*
X169200011Y-93639987D01*
X168450000Y-90115000D02*
X169200011Y-90865011D01*
X165790000Y-101040000D02*
X166750000Y-101040000D01*
X167100000Y-90115000D02*
X168450000Y-90115000D01*
X160615000Y-90115000D02*
X167100000Y-90115000D01*
X153500000Y-83000000D02*
X160615000Y-90115000D01*
X153500000Y-75250000D02*
X153500000Y-83000000D01*
%TO.N,Net-(SW1-Pad1)*%
X186150000Y-89200000D02*
X188550000Y-89200000D01*
X188550000Y-89200000D02*
X191250000Y-86500000D01*
X191250000Y-86500000D02*
X191250000Y-82250000D01*
X192000000Y-81500000D02*
X194000000Y-81500000D01*
X191250000Y-82250000D02*
X192000000Y-81500000D01*
%TD*%
M02*
