M48
; DRILL file {KiCad (5.1.9-0-10_14)} date Wednesday, August 25, 2021 at 11:23:18 AM
; FORMAT={-:-/ absolute / metric / decimal}
; #@! TF.CreationDate,2021-08-25T11:23:18+08:00
; #@! TF.GenerationSoftware,Kicad,Pcbnew,(5.1.9-0-10_14)
; #@! TF.FileFunction,Plated,1,2,PTH
FMAT,2
METRIC
T1C0.762
T2C0.800
T3C0.900
T4C1.000
T5C1.500
%
G90
G05
T1
X105.96Y-89.92
X105.96Y-92.46
X105.96Y-95.0
X147.5Y-75.25
X149.5Y-75.25
X151.5Y-75.25
X153.5Y-75.25
X155.5Y-75.25
X157.5Y-75.25
T2
X108.25Y-77.0
X108.25Y-79.5
X130.75Y-75.25
X140.91Y-75.25
X166.75Y-98.5
X166.75Y-101.04
X166.75Y-103.58
X166.75Y-106.12
X174.37Y-98.5
X174.37Y-101.04
X174.37Y-103.58
X174.37Y-106.12
X177.75Y-98.59
X177.75Y-108.75
X181.25Y-98.59
X181.25Y-108.75
X184.75Y-98.59
X184.75Y-108.75
X191.25Y-107.25
X191.25Y-109.75
T3
X194.0Y-77.5
X194.0Y-79.5
X194.0Y-81.5
T4
X169.63Y-80.0
X169.63Y-84.0
X172.17Y-80.0
X172.17Y-84.0
X174.71Y-80.0
X174.71Y-84.0
X177.25Y-80.0
X177.25Y-84.0
X188.75Y-82.0
X188.75Y-84.54
X192.5Y-91.0
X192.5Y-93.54
X192.5Y-96.08
X192.5Y-98.62
X192.5Y-101.16
X192.5Y-103.7
T5
X194.0Y-75.4
X194.0Y-83.6
T0
M30
